<svg width="1080" height="312" viewBox="0 0 1080 312" fill="none" xmlns="http://www.w3.org/2000/svg">
<g clip-path="url(#clip0_315_18070)">
<mask id="mask0_315_18070" style="mask-type:luminance" maskUnits="userSpaceOnUse" x="0" y="0" width="1080" height="312">
<path d="M1080 0.0479736H0V311.52H1080V0.0479736Z" fill="white"/>
</mask>
<g mask="url(#mask0_315_18070)">
<path d="M897.697 19.056V3.07197C897.697 2.20797 898.129 1.77597 898.561 1.34397C898.993 0.911974 899.857 0.479974 900.289 0.479974H901.153C903.313 0.479974 904.609 1.34397 904.609 3.93597V19.488C904.609 19.92 905.041 20.352 905.473 20.352H929.665C929.665 20.352 930.097 20.352 930.097 19.92L930.529 19.488V3.07197C930.529 2.20797 930.961 1.77597 931.393 1.34397C931.825 0.911974 932.689 0.479974 933.121 0.479974H933.985C936.145 0.479974 937.441 1.34397 937.441 3.50397V18.624C937.441 19.488 937.873 19.488 938.305 19.488H962.497C963.361 19.488 963.793 19.056 963.793 18.192V3.07197C963.793 2.20797 964.225 1.77597 964.657 0.911974C965.089 0.479974 965.953 0.0479736 966.817 0.0479736H967.681C969.841 0.0479736 971.137 0.911974 971.137 3.50397V19.056C971.137 19.056 971.137 19.488 971.569 19.488L972.001 19.92H996.625C996.625 19.92 997.057 19.92 997.057 19.488V19.056V3.50397C997.057 1.34397 998.353 0.0479736 1000.51 0.0479736H1001.38C1002.24 0.0479736 1002.67 0.479974 1003.1 0.911974C1003.54 1.34397 1003.97 2.20797 1003.97 2.63997V18.624V19.056C1003.97 19.056 1003.97 19.056 1003.97 19.488C1003.97 19.488 1003.97 19.488 1004.4 19.488C1004.4 19.488 1004.4 19.488 1004.83 19.488C1012.18 19.488 1020.38 19.056 1027.3 20.784C1041.12 24.672 1050.19 33.744 1053.65 48C1055.38 54.048 1054.51 60.96 1054.94 67.44C1054.94 67.872 1055.38 68.304 1055.81 68.304H1076.11C1076.54 68.304 1076.98 68.304 1077.41 68.736C1077.84 68.736 1078.27 69.168 1078.7 69.6C1079.14 70.032 1079.14 70.464 1079.57 70.896C1079.57 71.328 1080 71.76 1080 72.192V73.056C1080 73.92 1079.57 74.352 1079.14 74.784C1078.7 75.216 1077.84 75.648 1077.41 75.648H1056.24C1055.81 75.648 1055.38 76.08 1055.38 76.512V100.704C1055.38 101.136 1055.81 101.568 1056.24 101.568H1077.41C1078.27 101.568 1078.7 102 1079.14 102.432C1079.57 102.864 1080 103.728 1080 104.16V105.024C1080 107.184 1079.14 108.48 1076.54 108.48H1056.67C1055.81 108.48 1055.38 108.912 1055.38 109.776V134.4C1055.38 134.832 1055.38 134.832 1055.81 134.832L1056.24 135.264H1077.41C1078.27 135.264 1078.7 135.696 1079.14 136.128C1079.57 136.56 1080 137.424 1080 137.856V138.72C1080 140.88 1079.14 142.176 1076.54 142.176H1056.24C1055.81 142.176 1055.38 142.608 1055.38 143.04V167.232C1055.38 167.664 1055.81 168.096 1056.24 168.096H1077.41C1078.27 168.096 1078.7 168.528 1079.14 168.96C1079.57 169.392 1080 170.256 1080 170.688V171.552C1080 171.984 1080 172.416 1079.57 172.848C1079.57 173.28 1079.14 173.712 1078.7 174.144C1078.27 174.576 1077.84 174.576 1077.41 175.008C1076.98 175.008 1076.54 175.44 1076.11 175.44H1055.81C1055.38 175.44 1054.94 175.872 1054.94 176.304V197.904C1054.94 198.336 1054.94 198.336 1055.38 198.336L1055.81 198.768H1076.98C1077.84 198.768 1078.27 199.2 1078.7 199.632C1079.14 200.064 1079.57 200.928 1079.57 201.36V202.224C1079.57 204.816 1078.7 205.68 1076.11 205.68H1055.81C1054.94 205.68 1054.94 206.112 1054.94 206.544V230.304C1054.94 230.736 1055.38 231.168 1055.81 231.168H1076.54C1077.41 231.168 1077.84 231.6 1078.7 232.032C1079.14 232.464 1079.57 233.328 1079.57 234.192V235.056C1079.57 237.216 1078.27 238.512 1076.11 238.512H1056.24C1054.94 238.512 1054.51 238.944 1054.51 240.24C1055.38 250.608 1055.38 261.84 1050.19 270.912C1043.28 283.872 1031.62 290.352 1015.63 290.784C1011.74 290.784 1008.29 291.216 1004.4 291.216C1003.97 291.216 1003.54 291.648 1003.54 292.08V309.36C1003.54 310.224 1003.1 310.656 1002.67 311.088C1002.24 311.52 1001.38 311.952 1000.94 311.952H1000.08C999.649 311.952 999.217 311.952 998.785 311.52C998.353 311.52 997.921 311.088 997.489 310.656C997.057 310.224 997.057 309.792 996.625 309.36C996.625 308.928 996.193 308.496 996.193 308.064V291.216C996.193 291.216 996.193 291.216 996.193 290.784C996.193 290.784 996.193 290.784 996.193 290.352C996.193 290.352 996.193 290.352 995.761 290.352H971.137H970.705V290.784V308.064C970.705 308.496 970.705 308.928 970.273 309.36C970.273 309.792 969.841 310.224 969.409 310.656C968.977 311.088 968.545 311.088 968.113 311.52C967.681 311.52 967.249 311.52 966.817 311.52H965.953C965.089 311.52 964.657 311.088 963.793 310.656C963.361 310.224 962.929 309.36 962.929 308.496V291.648C962.929 291.216 962.497 290.784 962.065 290.784H937.441C936.577 290.784 936.577 291.216 936.577 291.648V308.496C936.577 311.088 935.281 311.952 932.689 311.52H931.825C930.961 311.52 930.529 311.088 930.097 310.656C929.665 310.224 929.233 309.36 929.233 308.928V291.648C929.233 291.216 928.801 290.784 928.369 290.784H904.177C903.745 290.784 903.313 291.216 903.313 291.648V308.496C903.313 308.928 903.313 309.36 902.881 309.792C902.881 310.224 902.449 310.656 902.017 311.088C901.585 311.52 901.153 311.52 900.721 311.952C900.289 311.952 899.857 311.952 899.425 311.952H898.561C897.697 311.952 897.265 311.52 896.833 311.088C896.401 310.656 895.969 309.792 895.969 309.36V292.08C895.969 291.648 895.537 291.216 895.105 291.216H873.073C873.073 291.216 873.073 291.216 872.641 291.216C872.641 291.216 872.641 291.216 872.641 291.648V308.928C872.641 311.52 871.345 312.384 869.185 312.384H868.321C867.457 312.384 867.025 311.952 866.161 311.52C865.729 311.088 865.297 310.224 865.297 309.36V292.512C865.297 292.08 864.865 291.648 864.433 291.648H842.401C841.969 291.648 841.537 292.08 841.537 292.512V309.36C841.537 311.952 840.241 312.816 837.649 312.816H836.785C835.921 312.816 835.489 312.384 835.057 311.952C834.625 311.52 834.193 310.656 834.193 310.224V292.944C834.193 292.512 833.761 292.08 833.329 292.08C825.553 292.08 816.913 292.512 809.569 290.352C794.881 285.6 785.809 274.8 783.217 258.384C783.217 257.52 782.785 257.52 781.921 257.52H759.457C758.593 257.52 758.161 257.088 757.297 256.656C756.865 256.224 756.433 255.36 756.433 254.928V254.064C756.001 251.904 756.865 250.608 759.457 250.608H781.921C782.785 250.608 783.217 250.176 783.217 249.312V226.416C783.217 225.984 782.785 225.552 782.353 225.552H760.321C758.161 225.552 756.865 224.256 756.865 222.096V220.8C756.865 220.368 756.865 219.936 756.865 219.936C756.865 219.504 757.297 219.504 757.297 219.072C757.729 218.64 757.729 218.64 758.161 218.64C758.593 218.64 758.593 218.64 759.025 218.64H782.785H783.217V218.208V194.016C783.217 193.152 782.785 192.72 781.921 192.72H759.457C758.593 192.72 758.161 192.288 757.729 191.856C757.297 191.424 756.865 190.56 756.865 190.128V189.264C756.865 186.672 757.729 185.808 760.321 185.808H782.353C783.217 185.808 783.649 185.376 783.649 184.512V163.344C783.649 162.48 783.217 162.048 782.353 162.048H647.137C646.705 162.048 646.705 162.048 646.273 162.48C646.273 162.48 645.841 162.912 645.841 163.344C642.385 188.832 619.921 206.976 594.433 200.496C565.057 193.152 552.961 159.888 570.241 135.696C590.113 107.616 636.337 114.96 644.545 149.088C644.977 150.816 645.409 152.544 645.841 154.272C645.841 154.704 646.273 154.704 646.273 155.136C646.705 155.136 646.705 155.568 647.137 155.568H782.785C782.785 155.568 783.217 155.568 783.217 155.136V154.704V130.08V129.648H782.785H759.457C756.865 129.648 756.001 128.352 756.433 126.192V125.328C756.433 124.464 756.865 124.032 757.297 123.6C757.729 123.168 758.593 122.736 759.025 122.736H781.489C782.353 122.736 782.785 122.304 782.785 121.44V96.816C782.785 96.816 782.785 96.384 782.353 96.384L781.921 95.952H758.593C757.729 95.952 757.297 95.52 756.865 95.088C756.433 94.656 756.001 93.792 756.001 93.36V92.496C756.001 89.904 756.865 89.04 759.457 89.04H781.489C782.353 89.04 782.785 88.608 782.785 87.744V63.984C782.785 63.552 782.353 63.12 781.921 63.12H759.457C756.865 63.12 756.001 61.824 756.001 59.232V58.368C756.001 57.504 756.433 57.072 756.865 56.64C757.297 56.208 758.161 55.776 758.593 55.776H781.057C781.921 55.776 781.921 55.344 782.353 54.912C785.377 37.632 794.449 27.264 810.433 22.512C816.913 20.784 825.121 21.216 832.465 21.216C832.897 21.216 833.329 20.784 833.329 20.352V3.50397C833.329 0.911974 834.625 0.0479736 837.217 0.0479736H838.081C838.513 0.0479736 839.377 0.479974 839.809 0.911974C840.241 1.34397 840.673 2.20797 840.673 2.63997L841.105 18.624C841.105 19.056 841.537 19.488 841.969 19.488H866.161C867.025 19.488 867.025 19.056 867.025 18.624V3.50397C867.025 1.34397 868.321 0.0479736 870.481 0.0479736H871.345C872.209 0.0479736 872.641 0.479974 873.073 0.911974C873.505 1.34397 873.937 2.20797 873.937 2.63997V18.624C873.937 18.624 873.937 19.056 874.369 19.056H874.801H896.833C897.265 19.92 897.697 19.488 897.697 19.056ZM855.793 223.824C867.889 205.68 883.009 182.352 895.105 159.456C907.201 136.128 918.433 102.432 905.041 77.376C898.129 64.416 886.033 58.368 871.345 57.936C837.217 57.072 824.689 86.448 825.985 116.256C825.985 116.688 826.417 117.12 826.849 117.12H853.633C854.065 117.12 854.497 116.688 854.497 116.256C854.497 105.888 853.633 85.584 867.457 83.856C889.489 80.832 883.441 119.28 879.553 129.648C867.457 162.912 845.857 195.312 824.689 223.392C823.825 224.688 823.393 225.984 823.393 227.28V251.904C823.393 252.336 823.825 252.768 824.257 252.768H907.633C908.065 252.768 908.497 252.336 908.497 251.904V225.984C908.497 225.552 908.065 225.12 907.633 225.12H856.225C855.793 225.12 855.361 224.688 855.793 223.824ZM967.681 167.664C967.681 167.232 967.681 167.232 968.113 167.232L968.545 166.8H1000.94C1001.38 166.8 1001.38 166.8 1001.38 166.368L1001.81 165.936V140.448C1001.81 140.016 1001.81 140.016 1001.38 140.016L1000.94 139.584H968.545C968.113 139.584 968.113 139.584 968.113 139.152L967.681 138.72V90.336C967.681 89.904 967.681 89.904 968.113 89.904L968.545 89.472H1014.34C1014.77 89.472 1014.77 89.472 1014.77 89.04C1014.77 88.608 1015.2 88.608 1015.2 88.608V62.688C1015.2 62.256 1015.2 62.256 1014.77 62.256L1014.34 61.824H939.169C938.737 61.824 938.737 61.824 938.737 62.256L938.305 62.688V251.904C938.305 252.336 938.305 252.336 938.737 252.336L939.169 252.768H1014.34H1014.77C1014.77 252.768 1014.77 252.768 1015.2 252.768C1015.2 252.768 1015.2 252.768 1015.2 252.336V251.904V225.12V224.688C1015.2 224.688 1015.2 224.688 1015.2 224.256C1015.2 224.256 1015.2 224.256 1014.77 224.256H1014.34H968.545H968.113C968.113 224.256 968.113 224.256 967.681 224.256C967.681 224.256 967.681 224.256 967.681 223.824V223.392V167.664Z" fill="#FA993A"/>
<path d="M41.0403 127.488V18.624V18.192H41.4723H192.24H192.672C192.672 18.192 192.672 18.192 193.104 18.624V19.056V19.488L162 55.344C162 55.344 162 55.344 161.568 55.344H78.1923H77.7603V55.776V127.92C77.7603 127.92 77.7603 127.92 77.7603 128.352C77.7603 128.352 77.7603 128.352 78.1923 128.352H165.456H165.888V128.784V164.64V165.072H165.456H78.1923H77.7603V165.504V251.04V251.472L42.3363 297.264C42.3363 297.264 42.3363 297.264 41.9043 297.264H41.4723H41.0403V296.832V165.072C41.0403 165.072 41.0403 165.072 41.0403 164.64L0.864258 129.216C0.864258 129.216 0.864258 129.216 0.864258 128.784V128.352C0.864258 128.352 0.864258 128.352 0.864258 127.92C0.864258 127.92 0.864258 127.92 1.29626 127.92H40.6083C40.6083 127.92 40.6083 127.92 41.0403 127.92C41.0403 127.92 41.0403 127.92 41.0403 127.488C41.0403 127.92 41.0403 127.92 41.0403 127.488Z" fill="#3357A3"/>
<path d="M404.352 136.56C404.352 134.832 403.92 134.832 403.488 136.56L336.528 297.696C336.528 297.696 336.528 298.128 336.096 298.128H335.664H307.584C307.152 298.128 307.152 298.128 307.152 298.128L306.72 297.696L241.488 136.128C241.056 134.832 240.624 134.832 240.624 136.128V296.832C240.624 297.696 240.192 298.128 239.328 298.128H204.768C204.336 298.128 203.904 297.696 203.904 297.264V60.096C203.904 59.232 204.336 58.8 204.768 57.936L235.008 19.056C235.008 19.056 235.008 19.056 235.44 18.624H235.872H236.304C236.304 18.624 236.304 18.624 236.304 19.056L321.408 232.896C321.84 234.192 322.272 234.192 322.704 232.896L408.24 18.624C408.24 18.624 408.24 18.192 408.672 18.192H409.104H440.208C440.208 18.192 440.208 18.192 440.64 18.192C440.64 18.192 440.64 18.192 440.64 18.624V297.264V297.696C440.64 297.696 440.64 297.696 440.208 298.128H439.776H439.344L404.352 267.888C403.92 267.456 403.488 267.024 403.488 266.16V136.56H404.352Z" fill="#3357A3"/>
<path d="M506.304 165.504C506.304 165.072 505.872 164.64 505.44 163.776C495.504 153.408 485.136 143.472 475.2 133.968C474.768 133.536 474.336 132.672 474.336 131.808C485.136 68.304 536.976 18.624 603.072 18.192C651.888 17.76 694.656 43.68 718.416 86.448C718.416 86.448 718.416 86.88 718.416 87.312C718.416 87.744 718.416 87.744 717.984 87.744L690.768 114.96C690.768 114.96 690.768 114.96 690.336 114.96H689.904C689.904 114.96 689.904 114.96 689.472 114.96C689.472 114.96 689.472 114.96 689.472 114.528C658.368 33.744 540 35.04 512.784 119.28C494.208 177.168 522.72 243.264 584.496 258.384C629.424 269.184 668.736 244.992 684.288 202.656C684.288 202.224 684.72 202.224 684.72 201.792C685.152 201.792 685.152 201.36 685.584 201.36H726.624C727.056 201.36 727.488 201.792 727.488 202.224C721.44 221.232 711.504 238.08 698.112 253.632C643.68 316.272 553.392 310.656 502.416 248.016C482.976 224.256 472.176 196.608 469.584 165.504C469.584 165.504 469.584 165.504 469.584 165.072C469.584 165.072 469.584 165.072 469.584 164.64C469.584 164.64 469.584 164.64 470.016 164.64C470.016 164.64 470.016 164.64 470.448 164.64L506.304 165.504C505.872 165.936 505.872 165.504 506.304 165.504Z" fill="#3357A3"/>
</g>
</g>
<defs>
<clipPath id="clip0_315_18070">
<rect width="1080" height="311.04" fill="white" transform="translate(0 0.47998)"/>
</clipPath>
</defs>
</svg>
